<?xml version="1.0" encoding="iso-8859-1"?>
<!-- Generator: Adobe Illustrator 19.0.0, SVG Export Plug-In . SVG Version: 6.00 Build 0)  -->
<svg version="1.1" id="Layer_1" xmlns="http://www.w3.org/2000/svg" xmlns:xlink="http://www.w3.org/1999/xlink" x="0px" y="0px"
	 viewBox="0 0 512 512" style="enable-background:new 0 0 512 512;" xml:space="preserve">
<circle style="fill:#FFD55C;" cx="256" cy="256" r="256"/>
<polygon style="fill:#FFFFFF;" points="256,425.317 182.685,382.986 182.685,298.331 256,340.662 "/>
<polygon style="fill:#F2F2F2;" points="256,256 182.685,298.331 256,340.662 329.315,298.331 "/>
<polygon style="fill:#D9D8D7;" points="256,425.317 329.309,382.986 329.309,298.331 256,340.662 "/>
<polygon style="fill:#FF6D3B;" points="329.309,298.328 256,256 256,171.348 329.309,213.676 "/>
<polygon style="fill:#242D3C;" points="329.309,129.014 256,171.348 329.309,213.676 402.627,171.348 "/>
<polygon style="fill:#16C6CC;" points="329.309,298.328 402.627,256 402.627,171.348 329.309,213.676 "/>
<g>
	<path style="fill:#242D3C;" d="M182.685,299.318c-0.172,0-0.344-0.046-0.495-0.132l-73.315-42.328
		c-0.307-0.178-0.492-0.502-0.492-0.859v-84.652c0-0.353,0.188-0.684,0.492-0.859s0.68-0.175,0.988,0l73.315,42.328
		c0.307,0.175,0.492,0.502,0.492,0.856v84.655c0,0.353-0.188,0.68-0.492,0.859C183.025,299.276,182.85,299.318,182.685,299.318z
		 M110.354,255.432l71.343,41.188v-82.376l-71.343-41.185V255.432z"/>
	<path style="fill:#242D3C;" d="M182.688,214.66c-0.172,0-0.344-0.046-0.492-0.132L108.874,172.2
		c-0.307-0.175-0.492-0.502-0.492-0.852c0-0.353,0.188-0.684,0.492-0.859l73.318-42.328c0.304-0.178,0.684-0.178,0.988,0
		l73.315,42.328c0.304,0.175,0.489,0.502,0.489,0.859c0,0.347-0.188,0.677-0.489,0.852l-73.315,42.328
		C183.028,214.617,182.857,214.66,182.688,214.66z M111.342,171.348l71.346,41.188l71.34-41.188l-71.34-41.195L111.342,171.348z"/>
	<path style="fill:#242D3C;" d="M256,256.991c-0.168,0-0.344-0.043-0.495-0.132l-5.13-2.96c-0.472-0.277-0.638-0.879-0.36-1.351
		c0.271-0.476,0.879-0.631,1.348-0.363l5.13,2.966c0.479,0.271,0.638,0.879,0.36,1.348C256.671,256.813,256.337,256.991,256,256.991
		z"/>
	<path style="fill:#242D3C;" d="M241.859,248.825c-0.168,0-0.337-0.043-0.492-0.129l-9.008-5.206
		c-0.476-0.271-0.634-0.875-0.357-1.348c0.271-0.472,0.875-0.628,1.344-0.36l9.011,5.199c0.472,0.277,0.631,0.879,0.357,1.348
		C242.529,248.647,242.199,248.825,241.859,248.825z M223.846,238.427c-0.168,0-0.34-0.046-0.495-0.135l-9.008-5.199
		c-0.472-0.271-0.631-0.879-0.36-1.348c0.271-0.469,0.879-0.631,1.348-0.36l9.008,5.199c0.476,0.274,0.634,0.879,0.36,1.348
		C224.517,238.245,224.183,238.427,223.846,238.427z M205.831,228.025c-0.168,0-0.34-0.046-0.492-0.135l-9.008-5.199
		c-0.476-0.271-0.638-0.879-0.36-1.348c0.271-0.472,0.875-0.631,1.348-0.36l9.008,5.199c0.472,0.271,0.634,0.879,0.36,1.348
		C206.504,227.847,206.168,228.025,205.831,228.025z"/>
	<path style="fill:#242D3C;" d="M187.812,217.623c-0.168,0-0.337-0.043-0.492-0.132l-4.634-2.679l-4.641,2.679
		c-0.472,0.271-1.077,0.112-1.348-0.36c-0.271-0.472-0.109-1.077,0.36-1.348l5.13-2.963c0.307-0.178,0.684-0.178,0.991,0
		l5.133,2.963c0.472,0.271,0.631,0.879,0.36,1.348C188.489,217.445,188.155,217.623,187.812,217.623z"/>
	<path style="fill:#242D3C;" d="M123.504,248.825c-0.337,0-0.671-0.178-0.852-0.495c-0.274-0.472-0.112-1.07,0.36-1.348l9.008-5.199
		c0.472-0.271,1.077-0.112,1.348,0.36c0.274,0.476,0.112,1.077-0.36,1.348L124,248.697
		C123.845,248.782,123.669,248.825,123.504,248.825z M141.52,238.427c-0.34,0-0.674-0.178-0.856-0.495
		c-0.271-0.472-0.109-1.074,0.36-1.348l9.008-5.199c0.472-0.271,1.08-0.112,1.348,0.36c0.277,0.476,0.112,1.077-0.357,1.348
		l-9.011,5.199C141.857,238.384,141.692,238.427,141.52,238.427z M159.536,228.025c-0.34,0-0.671-0.182-0.852-0.495
		c-0.277-0.472-0.112-1.077,0.357-1.348l9.011-5.199c0.466-0.277,1.07-0.112,1.344,0.36s0.112,1.077-0.357,1.348l-9.011,5.199
		C159.873,227.982,159.704,228.025,159.536,228.025z"/>
	<path style="fill:#242D3C;" d="M109.367,256.991c-0.344,0-0.674-0.178-0.856-0.492c-0.274-0.472-0.112-1.077,0.36-1.348
		l5.133-2.966c0.472-0.271,1.074-0.109,1.348,0.363c0.271,0.476,0.109,1.074-0.36,1.351l-5.133,2.96
		C109.703,256.948,109.535,256.991,109.367,256.991z"/>
	<path style="fill:#242D3C;" d="M182.685,299.318c-0.172,0-0.344-0.046-0.495-0.132c-0.304-0.178-0.489-0.502-0.489-0.859v-84.652
		c0-0.35,0.188-0.68,0.489-0.856l73.315-42.331c0.304-0.175,0.684-0.175,0.988,0c0.311,0.175,0.495,0.502,0.495,0.859V256
		c0,0.353-0.188,0.68-0.495,0.859l-73.315,42.328C183.025,299.276,182.85,299.318,182.685,299.318z M183.673,214.244v82.376
		l71.336-41.188v-82.373L183.673,214.244z"/>
	<path style="fill:#242D3C;" d="M182.688,135.928c-0.545,0-0.988-0.443-0.988-0.988v-5.929c0-0.542,0.443-0.988,0.988-0.988
		s0.988,0.446,0.988,0.988v5.929C183.673,135.488,183.233,135.928,182.688,135.928z"/>
	<path style="fill:#242D3C;" d="M182.685,198.336L182.685,198.336c-0.548,0-0.988-0.446-0.988-0.988v-10.402
		c0-0.545,0.446-0.988,0.988-0.988l0,0c0.548,0,0.988,0.443,0.988,0.988v10.402C183.673,197.89,183.227,198.336,182.685,198.336z
		 M182.685,177.532c-0.542,0-0.988-0.443-0.988-0.988v-10.399c0-0.548,0.446-0.991,0.988-0.991c0.548,0,0.988,0.443,0.988,0.991
		v10.399C183.673,177.089,183.233,177.532,182.685,177.532z M182.688,156.728c-0.545,0-0.988-0.439-0.988-0.988v-10.399
		c0-0.548,0.443-0.988,0.988-0.988s0.988,0.439,0.988,0.988v10.399C183.673,156.289,183.233,156.728,182.688,156.728z"/>
	<path style="fill:#242D3C;" d="M182.685,214.66c-0.548,0-0.988-0.443-0.988-0.988v-5.926c0-0.548,0.439-0.988,0.988-0.988
		c0.542,0,0.988,0.439,0.988,0.988v5.926C183.673,214.221,183.227,214.66,182.685,214.66z"/>
</g>
<g>
</g>
<g>
</g>
<g>
</g>
<g>
</g>
<g>
</g>
<g>
</g>
<g>
</g>
<g>
</g>
<g>
</g>
<g>
</g>
<g>
</g>
<g>
</g>
<g>
</g>
<g>
</g>
<g>
</g>
</svg>
