<?xml version="1.0" encoding="UTF-8" standalone="no"?>
<!-- Generator: Adobe Illustrator 19.0.0, SVG Export Plug-In . SVG Version: 6.00 Build 0)  -->

<svg
   xmlns:dc="http://purl.org/dc/elements/1.1/"
   xmlns:cc="http://creativecommons.org/ns#"
   xmlns:rdf="http://www.w3.org/1999/02/22-rdf-syntax-ns#"
   xmlns:svg="http://www.w3.org/2000/svg"
   xmlns="http://www.w3.org/2000/svg"
   xmlns:sodipodi="http://sodipodi.sourceforge.net/DTD/sodipodi-0.dtd"
   xmlns:inkscape="http://www.inkscape.org/namespaces/inkscape"
   version="1.1"
   id="Layer_1"
   x="0px"
   y="0px"
   viewBox="0 0 2104.7244 1488.189"
   xml:space="preserve"
   inkscape:version="0.91 r13725"
   sodipodi:docname="logo.svg"
   width="594mm"
   height="420mm"><metadata
     id="metadata61"><rdf:RDF><cc:Work
         rdf:about=""><dc:format>image/svg+xml</dc:format><dc:type
           rdf:resource="http://purl.org/dc/dcmitype/StillImage" /><dc:title></dc:title></cc:Work></rdf:RDF></metadata><defs
     id="defs59" /><sodipodi:namedview
     pagecolor="#ffffff"
     bordercolor="#666666"
     borderopacity="1"
     objecttolerance="10"
     gridtolerance="10"
     guidetolerance="10"
     inkscape:pageopacity="0"
     inkscape:pageshadow="2"
     inkscape:window-width="1366"
     inkscape:window-height="705"
     id="namedview57"
     showgrid="false"
     inkscape:zoom="0.23790323"
     inkscape:cx="1118.5811"
     inkscape:cy="963.17599"
     inkscape:window-x="0"
     inkscape:window-y="30"
     inkscape:window-maximized="1"
     inkscape:current-layer="Layer_1"
     units="mm" /><g
     id="g27"
     transform="translate(0,992.18897)" /><g
     id="g29"
     transform="translate(0,992.18897)" /><g
     id="g31"
     transform="translate(0,992.18897)" /><g
     id="g33"
     transform="translate(0,992.18897)" /><g
     id="g35"
     transform="translate(0,992.18897)" /><g
     id="g37"
     transform="translate(0,992.18897)" /><g
     id="g39"
     transform="translate(0,992.18897)" /><g
     id="g41"
     transform="translate(0,992.18897)" /><g
     id="g43"
     transform="translate(0,992.18897)" /><g
     id="g45"
     transform="translate(0,992.18897)" /><g
     id="g47"
     transform="translate(0,992.18897)" /><g
     id="g49"
     transform="translate(0,992.18897)" /><g
     id="g51"
     transform="translate(0,992.18897)" /><g
     id="g53"
     transform="translate(0,992.18897)" /><g
     id="g55"
     transform="translate(0,992.18897)" /><g
     id="g4502"
     transform="matrix(0,2.4231318,-2.4231318,0,3210.9829,-33.374915)" /><g
     id="g4504"
     transform="matrix(0,2.4231318,-2.4231318,0,3210.9829,-33.374915)" /><g
     id="g4506"
     transform="matrix(0,2.4231318,-2.4231318,0,3210.9829,-33.374915)" /><g
     id="g4508"
     transform="matrix(0,2.4231318,-2.4231318,0,3210.9829,-33.374915)" /><g
     id="g4510"
     transform="matrix(0,2.4231318,-2.4231318,0,3210.9829,-33.374915)" /><g
     id="g4512"
     transform="matrix(0,2.4231318,-2.4231318,0,3210.9829,-33.374915)" /><g
     id="g4514"
     transform="matrix(0,2.4231318,-2.4231318,0,3210.9829,-33.374915)" /><g
     id="g4516"
     transform="matrix(0,2.4231318,-2.4231318,0,3210.9829,-33.374915)" /><g
     id="g4518"
     transform="matrix(0,2.4231318,-2.4231318,0,3210.9829,-33.374915)" /><g
     id="g4520"
     transform="matrix(0,2.4231318,-2.4231318,0,3210.9829,-33.374915)" /><g
     id="g4522"
     transform="matrix(0,2.4231318,-2.4231318,0,3210.9829,-33.374915)" /><g
     id="g4524"
     transform="matrix(0,2.4231318,-2.4231318,0,3210.9829,-33.374915)" /><g
     id="g4526"
     transform="matrix(0,2.4231318,-2.4231318,0,3210.9829,-33.374915)" /><g
     id="g4528"
     transform="matrix(0,2.4231318,-2.4231318,0,3210.9829,-33.374915)" /><g
     id="g4530"
     transform="matrix(0,2.4231318,-2.4231318,0,3210.9829,-33.374915)" /><g
     id="g5056"><text
       sodipodi:linespacing="125%"
       id="text3389"
       y="823.91022"
       x="551.47668"
       style="font-style:normal;font-weight:normal;font-size:784.08325195px;line-height:125%;font-family:sans-serif;letter-spacing:0px;word-spacing:0px;fill:#e6e6e6;fill-opacity:1;stroke:none;stroke-width:1px;stroke-linecap:butt;stroke-linejoin:miter;stroke-opacity:1"
       xml:space="preserve"><tspan
         style="font-style:normal;font-variant:normal;font-weight:bold;font-stretch:normal;font-size:229.09576416px;font-family:'SFNS Display';-inkscape-font-specification:'SFNS Display Bold';fill:#e6e6e6"
         y="823.91022"
         x="551.47668"
         id="tspan3391"
         sodipodi:role="line">Robot Startup.</tspan></text>
<g
       style="fill:#e6e6e6"
       transform="matrix(1.3043489,0,0,1.3043489,13.016914,391.51037)"
       id="g4784"><g
         style="fill:#e6e6e6"
         id="g4724"><g
           style="fill:#e6e6e6"
           id="g4726"><path
             style="fill:#e6e6e6"
             inkscape:connector-curvature="0"
             d="m 359.372,138.214 -152.113,0 0,-43.248 C 228.592,90.053 244.495,70.918 244.495,48.162 244.495,21.657 222.968,0 196.333,0 c -26.635,0 -48.162,21.657 -48.162,48.162 0,22.82 15.903,41.891 37.236,46.804 l 0,43.249 -152.112,0 C 2.782,139.896 -1.808,166.724 0.584,177.261 l 33.099,187.863 c 2.78,15.903 16.549,27.41 32.711,27.41 l 259.943,0 c 16.162,0 29.931,-11.507 32.711,-27.41 l 33.099,-187.863 c 1.681,-9.762 -1.81,-37.172 -32.775,-39.047 z M 169.958,48.162 c 0,-14.545 11.83,-26.376 26.376,-26.376 14.546,0 26.376,11.83 26.376,26.376 0,14.546 -11.83,26.376 -26.376,26.376 -14.546,0 -26.376,-11.896 -26.376,-26.376 z m 200.598,125.284 -33.099,187.863 c -0.905,5.495 -5.689,9.438 -11.184,9.438 l -259.944,0 c -5.56,0 -10.279,-3.943 -11.184,-9.438 L 22.111,173.446 c -0.646,-3.426 0.453,-13.382 11.184,-13.382 l 326.077,0 c 12.089,0.065 11.83,10.021 11.184,13.382 z"
             id="path4728" /></g></g><g
         style="fill:#e6e6e6"
         id="g4730"><g
           style="fill:#e6e6e6"
           id="g4732"><path
             style="fill:#e6e6e6"
             inkscape:connector-curvature="0"
             d="m 106.733,179.717 c -26.57,0 -48.162,21.657 -48.162,48.162 0,26.57 21.657,48.162 48.162,48.162 26.634,0 48.162,-21.657 48.162,-48.162 0,-26.57 -21.657,-48.162 -48.162,-48.162 z m 0.065,74.473 c -14.545,0 -26.376,-11.83 -26.376,-26.376 0,-14.546 11.83,-26.376 26.376,-26.376 14.546,0 26.376,11.83 26.376,26.376 -0.065,14.61 -11.895,26.376 -26.376,26.376 z"
             id="path4734" /></g></g><g
         style="fill:#e6e6e6"
         id="g4736"><g
           style="fill:#e6e6e6"
           id="g4738"><path
             style="fill:#e6e6e6"
             inkscape:connector-curvature="0"
             d="m 284.511,179.717 c -26.57,0 -48.162,21.657 -48.162,48.162 0,26.57 21.657,48.162 48.162,48.162 26.57,0 48.162,-21.657 48.162,-48.162 0,-26.57 -21.592,-48.162 -48.162,-48.162 z m 0,74.473 c -14.545,0 -26.376,-11.83 -26.376,-26.376 0,-14.546 11.83,-26.376 26.376,-26.376 14.545,0 26.376,11.83 26.376,26.376 0,14.546 -11.83,26.376 -26.376,26.376 z"
             id="path4740" /></g></g><g
         style="fill:#e6e6e6"
         id="g4742"><g
           style="fill:#e6e6e6"
           id="g4744"><path
             style="fill:#e6e6e6"
             inkscape:connector-curvature="0"
             d="m 265.958,320.517 c -2.069,-5.56 -8.404,-8.404 -14.093,-6.335 -15.58,5.883 -35.297,9.115 -55.531,9.115 -20.234,0 -40.016,-3.232 -55.531,-9.115 -5.624,-2.133 -11.895,0.711 -14.093,6.335 -2.069,5.624 0.711,11.895 6.335,14.093 18.23,6.852 40.081,10.537 63.289,10.537 23.208,0 45.059,-3.62 63.289,-10.537 5.623,-2.069 8.468,-8.404 6.335,-14.093 z"
             id="path4746" /></g></g><g
         style="fill:#e6e6e6"
         id="g4748" /><g
         style="fill:#e6e6e6"
         id="g4750" /><g
         style="fill:#e6e6e6"
         id="g4752" /><g
         style="fill:#e6e6e6"
         id="g4754" /><g
         style="fill:#e6e6e6"
         id="g4756" /><g
         style="fill:#e6e6e6"
         id="g4758" /><g
         style="fill:#e6e6e6"
         id="g4760" /><g
         style="fill:#e6e6e6"
         id="g4762" /><g
         style="fill:#e6e6e6"
         id="g4764" /><g
         style="fill:#e6e6e6"
         id="g4766" /><g
         style="fill:#e6e6e6"
         id="g4768" /><g
         style="fill:#e6e6e6"
         id="g4770" /><g
         style="fill:#e6e6e6"
         id="g4772" /><g
         style="fill:#e6e6e6"
         id="g4774" /><g
         style="fill:#e6e6e6"
         id="g4776" /></g></g></svg>