<?xml version="1.0" encoding="iso-8859-1"?>
<!-- Generator: Adobe Illustrator 19.0.0, SVG Export Plug-In . SVG Version: 6.00 Build 0)  -->
<svg version="1.1" id="Layer_1" xmlns="http://www.w3.org/2000/svg" xmlns:xlink="http://www.w3.org/1999/xlink" x="0px" y="0px"
	 viewBox="0 0 512 512" style="enable-background:new 0 0 512 512;" xml:space="preserve">
<circle style="fill:#87DFD6;" cx="256" cy="256" r="66.783"/>
<path d="M512,256c0-66.869-106.681-119.619-244.87-122.318v-33.506c0-6.146-4.984-11.13-11.13-11.13s-11.13,4.984-11.13,11.13
	v33.507C106.681,136.381,0,189.131,0,256s106.681,119.619,244.87,122.318V500.87c0,6.146,4.984,11.13,11.13,11.13
	s11.13-4.984,11.13-11.13V378.318C405.319,375.619,512,322.869,512,256z M424.544,324.571
	C379.709,344.95,319.852,356.174,256,356.174S132.291,344.95,87.456,324.571C46.024,305.739,22.261,280.744,22.261,256
	s23.763-49.739,65.195-68.571C132.291,167.05,192.148,155.826,256,155.826s123.709,11.224,168.544,31.603
	c41.432,18.833,65.195,43.827,65.195,68.571S465.976,305.739,424.544,324.571z"/>
<path d="M256,178.087c-42.961,0-77.913,34.952-77.913,77.913s34.952,77.913,77.913,77.913s77.913-34.952,77.913-77.913
	S298.961,178.087,256,178.087z M256,311.652c-30.687,0-55.652-24.966-55.652-55.652s24.966-55.652,55.652-55.652
	s55.652,24.966,55.652,55.652S286.687,311.652,256,311.652z"/>
<path d="M256,44.523c6.146,0,11.13-4.984,11.13-11.13V11.13C267.13,4.984,262.146,0,256,0s-11.13,4.984-11.13,11.13v22.262
	C244.87,39.539,249.854,44.523,256,44.523z"/>
<path d="M249.823,76.042c0.601,0.401,1.245,0.746,1.914,1.024c0.679,0.278,1.38,0.49,2.093,0.634
	c0.712,0.145,1.447,0.213,2.17,0.213c0.722,0,1.458-0.068,2.17-0.211c0.712-0.145,1.414-0.356,2.08-0.634
	c0.679-0.278,1.325-0.623,1.926-1.024c0.612-0.412,1.18-0.879,1.692-1.391c2.071-2.07,3.262-4.942,3.262-7.869
	c0-0.723-0.068-1.459-0.211-2.17c-0.144-0.711-0.367-1.415-0.646-2.081c-0.278-0.679-0.612-1.325-1.024-1.926
	c-0.4-0.612-0.867-1.18-1.38-1.692c-0.512-0.512-1.08-0.979-1.692-1.38c-0.601-0.4-1.247-0.746-1.926-1.024
	c-0.668-0.278-1.368-0.489-2.08-0.634c-1.436-0.289-2.916-0.289-4.341,0c-0.712,0.146-1.414,0.356-2.093,0.634
	c-0.669,0.278-1.313,0.624-1.914,1.024c-0.613,0.401-1.181,0.868-1.693,1.38c-0.512,0.512-0.979,1.08-1.391,1.692
	c-0.401,0.601-0.735,1.247-1.013,1.926c-0.278,0.668-0.501,1.369-0.633,2.081c-0.146,0.712-0.223,1.447-0.223,2.17
	c0,2.927,1.19,5.799,3.261,7.868C248.643,75.163,249.209,75.63,249.823,76.042z"/>
<g>
</g>
<g>
</g>
<g>
</g>
<g>
</g>
<g>
</g>
<g>
</g>
<g>
</g>
<g>
</g>
<g>
</g>
<g>
</g>
<g>
</g>
<g>
</g>
<g>
</g>
<g>
</g>
<g>
</g>
</svg>
