<?xml version="1.0" encoding="iso-8859-1"?>
<!-- Generator: Adobe Illustrator 19.0.0, SVG Export Plug-In . SVG Version: 6.00 Build 0)  -->
<svg version="1.1" id="Layer_1" xmlns="http://www.w3.org/2000/svg" xmlns:xlink="http://www.w3.org/1999/xlink" x="0px" y="0px"
	 viewBox="0 0 481.882 481.882" style="enable-background:new 0 0 481.882 481.882;" xml:space="preserve">
<polygon style="fill:#64798A;" points="227.689,259.614 216.847,252.386 267.445,170.466 481.882,170.466 481.882,183.718 
	274.673,183.718 "/>
<path style="fill:#EBF0F3;" d="M0,359.002L0,359.002L0,359.002c133.12,163.84,348.762,163.84,481.882,0l0,0l0,0
	C348.762,195.765,133.12,195.765,0,359.002z"/>
<path style="fill:#44C4A1;" d="M311.416,321.656c-18.071,0-33.129-14.456-33.129-33.129c0-8.433,3.614-16.264,8.433-22.287
	c-13.854-6.626-29.515-10.842-45.779-10.842c-57.224,0-103.002,46.381-103.002,103.002s45.779,104.207,103.002,104.207
	s103.002-46.381,103.002-103.002c0-16.264-4.216-31.925-10.842-45.779C327.078,318.645,319.849,321.656,311.416,321.656z"/>
<circle style="fill:#64798A;" cx="240.941" cy="359.002" r="31.925"/>
<circle style="fill:#FFFFFF;" cx="262.024" cy="337.92" r="10.842"/>
<rect x="268.047" style="fill:#FCD462;" width="46.381" height="13.854"/>
<rect x="337.92" style="fill:#44C4A1;" width="46.381" height="13.854"/>
<rect x="408.395" style="fill:#E56353;" width="73.487" height="13.854"/>
<rect x="268.047" y="43.972" style="fill:#64798A;" width="28.913" height="13.854"/>
<rect x="312.019" y="45.176" style="fill:#27A2DB;" width="62.042" height="13.854"/>
<rect x="393.939" y="43.972" style="fill:#FCD462;" width="51.2" height="13.854"/>
<rect x="268.047" y="91.558" style="fill:#E56353;" width="40.96" height="13.854"/>
<g>
	<rect x="328.885" y="91.558" style="fill:#64798A;" width="46.381" height="13.854"/>
	<rect x="384.904" y="91.558" style="fill:#64798A;" width="46.381" height="13.854"/>
	<rect x="441.525" y="91.558" style="fill:#64798A;" width="40.358" height="13.854"/>
	<rect x="268.047" y="135.529" style="fill:#64798A;" width="28.913" height="13.854"/>
</g>
<rect x="312.019" y="136.132" style="fill:#44C4A1;" width="62.042" height="13.854"/>
<rect x="393.939" y="135.529" style="fill:#27A2DB;" width="51.2" height="13.854"/>
<g>
</g>
<g>
</g>
<g>
</g>
<g>
</g>
<g>
</g>
<g>
</g>
<g>
</g>
<g>
</g>
<g>
</g>
<g>
</g>
<g>
</g>
<g>
</g>
<g>
</g>
<g>
</g>
<g>
</g>
</svg>
